solid CATIA STL
  facet normal -4.338759e-001  9.009525e-001  6.031877e-003
    outer loop
      vertex -4.052684e+000  5.081904e+000  3.000000e+001
      vertex -1.446386e+000  6.337031e+000  3.000000e+001
      vertex -3.224600e+000  5.643754e+000  5.643754e+000
    endloop
  endfacet
  facet normal -3.247985e-001  9.457778e-001 -3.207617e-003
    outer loop
      vertex -3.224600e+000  5.643754e+000  5.643754e+000
      vertex -1.446386e+000  6.337031e+000  3.000000e+001
      vertex -9.366177e-001  6.432165e+000  6.432165e+000
    endloop
  endfacet
  facet normal -9.969042e-001  7.862566e-002  0.000000e+000
    outer loop
      vertex -6.500000e+000 -2.090586e-015  0.000000e+000
      vertex -6.500000e+000 -2.090586e-015  3.000000e+001
      vertex -6.419634e+000  1.018972e+000  1.018972e+000
    endloop
  endfacet
  facet normal -9.749151e-001  2.225181e-001  5.120228e-003
    outer loop
      vertex -6.419634e+000  1.018972e+000  1.018972e+000
      vertex -6.500000e+000 -2.090586e-015  3.000000e+001
      vertex -5.856297e+000  2.820244e+000  3.000000e+001
    endloop
  endfacet
  facet normal -9.316171e-001  3.634138e-001 -4.478568e-003
    outer loop
      vertex -6.419634e+000  1.018972e+000  1.018972e+000
      vertex -5.856297e+000  2.820244e+000  3.000000e+001
      vertex -5.443786e+000  3.551788e+000  3.551787e+000
    endloop
  endfacet
  facet normal -7.726297e-001  6.348330e-001  5.508460e-003
    outer loop
      vertex -5.443786e+000  3.551788e+000  3.551787e+000
      vertex -5.856297e+000  2.820244e+000  3.000000e+001
      vertex -4.500544e+000  4.689894e+000  4.689889e+000
    endloop
  endfacet
  facet normal -7.818247e-001  6.234844e-001  4.177606e-003
    outer loop
      vertex -4.500544e+000  4.689894e+000  4.689889e+000
      vertex -5.856297e+000  2.820244e+000  3.000000e+001
      vertex -4.052684e+000  5.081904e+000  3.000000e+001
    endloop
  endfacet
  facet normal -5.978729e-001  8.015888e-001 -1.835943e-003
    outer loop
      vertex -4.500544e+000  4.689894e+000  4.689889e+000
      vertex -4.052684e+000  5.081904e+000  3.000000e+001
      vertex -3.224600e+000  5.643754e+000  5.643754e+000
    endloop
  endfacet
  facet normal  4.696738e-002  9.988837e-001  5.047985e-003
    outer loop
      vertex -9.366177e-001  6.432165e+000  6.432165e+000
      vertex -1.446386e+000  6.337031e+000  3.000000e+001
      vertex  1.533050e+000  6.316626e+000  6.316626e+000
    endloop
  endfacet
  facet normal  0.000000e+000  9.999997e-001 -8.616071e-004
    outer loop
      vertex  1.533050e+000  6.316626e+000  6.316626e+000
      vertex -1.446386e+000  6.337031e+000  3.000000e+001
      vertex  1.446386e+000  6.337031e+000  3.000000e+001
    endloop
  endfacet
  facet normal  3.586073e-001  9.334884e-001  5.079382e-004
    outer loop
      vertex  1.533050e+000  6.316626e+000  6.316626e+000
      vertex  1.446386e+000  6.337031e+000  3.000000e+001
      vertex  3.088217e+000  5.719520e+000  5.719518e+000
    endloop
  endfacet
  facet normal  4.338748e-001  9.009503e-001  6.425011e-003
    outer loop
      vertex  3.088217e+000  5.719520e+000  5.719518e+000
      vertex  1.446386e+000  6.337031e+000  3.000000e+001
      vertex  4.052684e+000  5.081904e+000  3.000000e+001
    endloop
  endfacet
  facet normal  5.751249e-001  8.180645e-001 -1.362324e-003
    outer loop
      vertex  3.088217e+000  5.719520e+000  5.719518e+000
      vertex  4.052684e+000  5.081904e+000  3.000000e+001
      vertex  4.344305e+000  4.834979e+000  4.834979e+000
    endloop
  endfacet
  facet normal  7.829162e-001  6.221200e-001  2.968289e-003
    outer loop
      vertex  4.344305e+000  4.834979e+000  4.834979e+000
      vertex  4.052684e+000  5.081904e+000  3.000000e+001
      vertex  5.676833e+000  3.166002e+000  3.166002e+000
    endloop
  endfacet
  facet normal  7.818284e-001  6.234874e-001  2.804832e-003
    outer loop
      vertex  5.676833e+000  3.166002e+000  3.166002e+000
      vertex  4.052684e+000  5.081904e+000  3.000000e+001
      vertex  5.856297e+000  2.820244e+000  3.000000e+001
    endloop
  endfacet
  facet normal  9.367757e-001  3.499261e-001 -1.756303e-003
    outer loop
      vertex  5.676833e+000  3.166002e+000  3.166002e+000
      vertex  5.856297e+000  2.820244e+000  3.000000e+001
      vertex  6.366592e+000  1.310155e+000  1.310155e+000
    endloop
  endfacet
  facet normal  9.948557e-001  1.013023e-001  0.000000e+000
    outer loop
      vertex  6.500000e+000  0.000000e+000  0.000000e+000
      vertex  6.366592e+000  1.310155e+000  1.310155e+000
      vertex  6.500000e+000  0.000000e+000  3.000000e+001
    endloop
  endfacet
  facet normal  9.749125e-001  2.225174e-001  5.628167e-003
    outer loop
      vertex  6.500000e+000  0.000000e+000  3.000000e+001
      vertex  6.366592e+000  1.310155e+000  1.310155e+000
      vertex  5.856297e+000  2.820244e+000  3.000000e+001
    endloop
  endfacet
  facet normal  4.338759e-001 -9.009525e-001  6.031877e-003
    outer loop
      vertex  4.052684e+000 -5.081904e+000  3.000000e+001
      vertex  1.446386e+000 -6.337031e+000  3.000000e+001
      vertex  3.224600e+000 -5.643754e+000  5.643754e+000
    endloop
  endfacet
  facet normal  3.247985e-001 -9.457778e-001 -3.207617e-003
    outer loop
      vertex  3.224600e+000 -5.643754e+000  5.643754e+000
      vertex  1.446386e+000 -6.337031e+000  3.000000e+001
      vertex  9.366177e-001 -6.432165e+000  6.432165e+000
    endloop
  endfacet
  facet normal  9.969042e-001 -7.862566e-002  0.000000e+000
    outer loop
      vertex  6.500000e+000  0.000000e+000  0.000000e+000
      vertex  6.500000e+000  0.000000e+000  3.000000e+001
      vertex  6.419634e+000 -1.018972e+000  1.018972e+000
    endloop
  endfacet
  facet normal  9.749151e-001 -2.225181e-001  5.120228e-003
    outer loop
      vertex  6.419634e+000 -1.018972e+000  1.018972e+000
      vertex  6.500000e+000  0.000000e+000  3.000000e+001
      vertex  5.856297e+000 -2.820244e+000  3.000000e+001
    endloop
  endfacet
  facet normal  9.316171e-001 -3.634138e-001 -4.478568e-003
    outer loop
      vertex  6.419634e+000 -1.018972e+000  1.018972e+000
      vertex  5.856297e+000 -2.820244e+000  3.000000e+001
      vertex  5.443786e+000 -3.551788e+000  3.551787e+000
    endloop
  endfacet
  facet normal  7.726297e-001 -6.348330e-001  5.508460e-003
    outer loop
      vertex  5.443786e+000 -3.551788e+000  3.551787e+000
      vertex  5.856297e+000 -2.820244e+000  3.000000e+001
      vertex  4.500544e+000 -4.689894e+000  4.689889e+000
    endloop
  endfacet
  facet normal  7.818247e-001 -6.234844e-001  4.177606e-003
    outer loop
      vertex  4.500544e+000 -4.689894e+000  4.689889e+000
      vertex  5.856297e+000 -2.820244e+000  3.000000e+001
      vertex  4.052684e+000 -5.081904e+000  3.000000e+001
    endloop
  endfacet
  facet normal  5.978729e-001 -8.015888e-001 -1.835943e-003
    outer loop
      vertex  4.500544e+000 -4.689894e+000  4.689889e+000
      vertex  4.052684e+000 -5.081904e+000  3.000000e+001
      vertex  3.224600e+000 -5.643754e+000  5.643754e+000
    endloop
  endfacet
  facet normal -4.696738e-002 -9.988837e-001  5.047985e-003
    outer loop
      vertex  9.366177e-001 -6.432165e+000  6.432165e+000
      vertex  1.446386e+000 -6.337031e+000  3.000000e+001
      vertex -1.533050e+000 -6.316626e+000  6.316626e+000
    endloop
  endfacet
  facet normal  0.000000e+000 -9.999997e-001 -8.616071e-004
    outer loop
      vertex -1.533050e+000 -6.316626e+000  6.316626e+000
      vertex  1.446386e+000 -6.337031e+000  3.000000e+001
      vertex -1.446386e+000 -6.337031e+000  3.000000e+001
    endloop
  endfacet
  facet normal -3.586073e-001 -9.334884e-001  5.079382e-004
    outer loop
      vertex -1.533050e+000 -6.316626e+000  6.316626e+000
      vertex -1.446386e+000 -6.337031e+000  3.000000e+001
      vertex -3.088217e+000 -5.719520e+000  5.719518e+000
    endloop
  endfacet
  facet normal -4.338748e-001 -9.009503e-001  6.425011e-003
    outer loop
      vertex -3.088217e+000 -5.719520e+000  5.719518e+000
      vertex -1.446386e+000 -6.337031e+000  3.000000e+001
      vertex -4.052684e+000 -5.081904e+000  3.000000e+001
    endloop
  endfacet
  facet normal -5.751249e-001 -8.180645e-001 -1.362324e-003
    outer loop
      vertex -3.088217e+000 -5.719520e+000  5.719518e+000
      vertex -4.052684e+000 -5.081904e+000  3.000000e+001
      vertex -4.344305e+000 -4.834979e+000  4.834979e+000
    endloop
  endfacet
  facet normal -7.829162e-001 -6.221200e-001  2.968289e-003
    outer loop
      vertex -4.344305e+000 -4.834979e+000  4.834979e+000
      vertex -4.052684e+000 -5.081904e+000  3.000000e+001
      vertex -5.676833e+000 -3.166002e+000  3.166002e+000
    endloop
  endfacet
  facet normal -7.818284e-001 -6.234874e-001  2.804832e-003
    outer loop
      vertex -5.676833e+000 -3.166002e+000  3.166002e+000
      vertex -4.052684e+000 -5.081904e+000  3.000000e+001
      vertex -5.856297e+000 -2.820244e+000  3.000000e+001
    endloop
  endfacet
  facet normal -9.367757e-001 -3.499261e-001 -1.756303e-003
    outer loop
      vertex -5.676833e+000 -3.166002e+000  3.166002e+000
      vertex -5.856297e+000 -2.820244e+000  3.000000e+001
      vertex -6.366592e+000 -1.310155e+000  1.310155e+000
    endloop
  endfacet
  facet normal -9.948557e-001 -1.013023e-001  0.000000e+000
    outer loop
      vertex -6.500000e+000 -2.090586e-015  0.000000e+000
      vertex -6.366592e+000 -1.310155e+000  1.310155e+000
      vertex -6.500000e+000 -2.090586e-015  3.000000e+001
    endloop
  endfacet
  facet normal -9.749125e-001 -2.225174e-001  5.628167e-003
    outer loop
      vertex -6.500000e+000 -2.090586e-015  3.000000e+001
      vertex -6.366592e+000 -1.310155e+000  1.310155e+000
      vertex -5.856297e+000 -2.820244e+000  3.000000e+001
    endloop
  endfacet
  facet normal  4.337972e-001 -1.996769e-002  9.007892e-001
    outer loop
      vertex  4.052684e+000 -1.300000e+001  5.081904e+000
      vertex  3.224600e+000 -5.643754e+000  5.643754e+000
      vertex  1.446386e+000 -1.300000e+001  6.337031e+000
    endloop
  endfacet
  facet normal  3.222837e-001  1.130338e-002  9.465756e-001
    outer loop
      vertex  3.224600e+000 -5.643754e+000  5.643754e+000
      vertex  9.366177e-001 -6.432165e+000  6.432165e+000
      vertex  1.446386e+000 -1.300000e+001  6.337031e+000
    endloop
  endfacet
  facet normal  9.749278e-001 -3.578455e-017  2.225210e-001
    outer loop
      vertex  6.500000e+000 -1.300000e+001 -2.090586e-015
      vertex  6.500000e+000  0.000000e+000  0.000000e+000
      vertex  5.856297e+000 -1.300000e+001  2.820244e+000
    endloop
  endfacet
  facet normal  9.984447e-001 -4.131878e-002  3.742840e-002
    outer loop
      vertex  5.856297e+000 -1.300000e+001  2.820244e+000
      vertex  6.500000e+000  0.000000e+000  0.000000e+000
      vertex  6.419634e+000 -1.018972e+000  1.018972e+000
    endloop
  endfacet
  facet normal  9.290126e-001  1.192427e-002  3.698561e-001
    outer loop
      vertex  5.856297e+000 -1.300000e+001  2.820244e+000
      vertex  6.419634e+000 -1.018972e+000  1.018972e+000
      vertex  5.443786e+000 -3.551788e+000  3.551787e+000
    endloop
  endfacet
  facet normal  7.817533e-001 -1.413829e-002  6.234275e-001
    outer loop
      vertex  5.856297e+000 -1.300000e+001  2.820244e+000
      vertex  5.443786e+000 -3.551788e+000  3.551787e+000
      vertex  4.052684e+000 -1.300000e+001  5.081904e+000
    endloop
  endfacet
  facet normal  7.757708e-001 -1.204736e-002  6.308997e-001
    outer loop
      vertex  4.052684e+000 -1.300000e+001  5.081904e+000
      vertex  5.443786e+000 -3.551788e+000  3.551787e+000
      vertex  4.500544e+000 -4.689894e+000  4.689889e+000
    endloop
  endfacet
  facet normal  5.959809e-001  5.759649e-003  8.029780e-001
    outer loop
      vertex  4.052684e+000 -1.300000e+001  5.081904e+000
      vertex  4.500544e+000 -4.689894e+000  4.689889e+000
      vertex  3.224600e+000 -5.643754e+000  5.643754e+000
    endloop
  endfacet
  facet normal  0.000000e+000 -1.448328e-002  9.998951e-001
    outer loop
      vertex  1.446386e+000 -1.300000e+001  6.337031e+000
      vertex  9.366177e-001 -6.432165e+000  6.432165e+000
      vertex -1.446386e+000 -1.300000e+001  6.337031e+000
    endloop
  endfacet
  facet normal -4.661804e-002  2.445386e-003  9.989098e-001
    outer loop
      vertex -1.446386e+000 -1.300000e+001  6.337031e+000
      vertex  9.366177e-001 -6.432165e+000  6.432165e+000
      vertex -1.533050e+000 -6.316626e+000  6.316626e+000
    endloop
  endfacet
  facet normal -4.338820e-001 -2.875335e-003  9.009652e-001
    outer loop
      vertex -1.446386e+000 -1.300000e+001  6.337031e+000
      vertex -1.533050e+000 -6.316626e+000  6.316626e+000
      vertex -4.052684e+000 -1.300000e+001  5.081904e+000
    endloop
  endfacet
  facet normal -3.690843e-001 -3.245183e-002  9.288291e-001
    outer loop
      vertex -4.052684e+000 -1.300000e+001  5.081904e+000
      vertex -1.533050e+000 -6.316626e+000  6.316626e+000
      vertex -3.088217e+000 -5.719520e+000  5.719518e+000
    endloop
  endfacet
  facet normal -5.737457e-001  4.276981e-003  8.190224e-001
    outer loop
      vertex -4.052684e+000 -1.300000e+001  5.081904e+000
      vertex -3.088217e+000 -5.719520e+000  5.719518e+000
      vertex -4.344305e+000 -4.834979e+000  4.834979e+000
    endloop
  endfacet
  facet normal -7.817993e-001 -9.067887e-003  6.234641e-001
    outer loop
      vertex -4.052684e+000 -1.300000e+001  5.081904e+000
      vertex -4.344305e+000 -4.834979e+000  4.834979e+000
      vertex -5.856297e+000 -1.300000e+001  2.820244e+000
    endloop
  endfacet
  facet normal -7.850717e-001 -7.449204e-003  6.193600e-001
    outer loop
      vertex -5.856297e+000 -1.300000e+001  2.820244e+000
      vertex -4.344305e+000 -4.834979e+000  4.834979e+000
      vertex -5.676833e+000 -3.166002e+000  3.166002e+000
    endloop
  endfacet
  facet normal -9.358029e-001  4.684441e-003  3.524927e-001
    outer loop
      vertex -5.856297e+000 -1.300000e+001  2.820244e+000
      vertex -5.676833e+000 -3.166002e+000  3.166002e+000
      vertex -6.366592e+000 -1.310155e+000  1.310155e+000
    endloop
  endfacet
  facet normal -9.948556e-001  0.000000e+000  1.013023e-001
    outer loop
      vertex -6.500000e+000 -2.090586e-015  0.000000e+000
      vertex -6.500000e+000 -1.300000e+001  0.000000e+000
      vertex -6.366592e+000 -1.310155e+000  1.310155e+000
    endloop
  endfacet
  facet normal -9.748349e-001 -1.381185e-002  2.224998e-001
    outer loop
      vertex -6.366592e+000 -1.310155e+000  1.310155e+000
      vertex -6.500000e+000 -1.300000e+001  0.000000e+000
      vertex -5.856297e+000 -1.300000e+001  2.820244e+000
    endloop
  endfacet
  facet normal -4.338829e-001  1.975843e-003  9.009671e-001
    outer loop
      vertex -1.446386e+000  8.000000e+001  6.337031e+000
      vertex -4.052684e+000  8.000000e+001  5.081904e+000
      vertex -3.224600e+000  5.643754e+000  5.643754e+000
    endloop
  endfacet
  facet normal  9.948556e-001  2.647265e-018  1.013023e-001
    outer loop
      vertex  6.500000e+000  0.000000e+000  0.000000e+000
      vertex  6.500000e+000  8.000000e+001 -2.090586e-015
      vertex  6.366592e+000  1.310155e+000  1.310155e+000
    endloop
  endfacet
  facet normal  9.749259e-001  2.052024e-003  2.225205e-001
    outer loop
      vertex  6.366592e+000  1.310155e+000  1.310155e+000
      vertex  6.500000e+000  8.000000e+001 -2.090586e-015
      vertex  5.856297e+000  8.000000e+001  2.820244e+000
    endloop
  endfacet
  facet normal  9.371495e-001 -6.187514e-004  3.489275e-001
    outer loop
      vertex  6.366592e+000  1.310155e+000  1.310155e+000
      vertex  5.856297e+000  8.000000e+001  2.820244e+000
      vertex  5.676833e+000  3.166002e+000  3.166002e+000
    endloop
  endfacet
  facet normal  7.819511e-001  9.786200e-004  6.233391e-001
    outer loop
      vertex  5.676833e+000  3.166002e+000  3.166002e+000
      vertex  5.856297e+000  8.000000e+001  2.820244e+000
      vertex  4.344305e+000  4.834979e+000  4.834979e+000
    endloop
  endfacet
  facet normal  7.818311e-001  9.850659e-004  6.234895e-001
    outer loop
      vertex  4.344305e+000  4.834979e+000  4.834979e+000
      vertex  5.856297e+000  8.000000e+001  2.820244e+000
      vertex  4.052684e+000  8.000000e+001  5.081904e+000
    endloop
  endfacet
  facet normal  5.755526e-001 -4.534578e-004  8.177647e-001
    outer loop
      vertex  4.344305e+000  4.834979e+000  4.834979e+000
      vertex  4.052684e+000  8.000000e+001  5.081904e+000
      vertex  3.088217e+000  5.719520e+000  5.719518e+000
    endloop
  endfacet
  facet normal  3.595541e-001  3.341271e-003  9.331182e-001
    outer loop
      vertex  3.088217e+000  5.719520e+000  5.719518e+000
      vertex  4.052684e+000  8.000000e+001  5.081904e+000
      vertex  1.533050e+000  6.316626e+000  6.316626e+000
    endloop
  endfacet
  facet normal  4.338838e-001  2.608054e-004  9.009688e-001
    outer loop
      vertex  1.533050e+000  6.316626e+000  6.316626e+000
      vertex  4.052684e+000  8.000000e+001  5.081904e+000
      vertex  1.446386e+000  8.000000e+001  6.337031e+000
    endloop
  endfacet
  facet normal  4.672198e-002 -2.216834e-004  9.989079e-001
    outer loop
      vertex  1.533050e+000  6.316626e+000  6.316626e+000
      vertex  1.446386e+000  8.000000e+001  6.337031e+000
      vertex -9.366177e-001  6.432165e+000  6.432165e+000
    endloop
  endfacet
  facet normal  0.000000e+000  1.293143e-003  9.999992e-001
    outer loop
      vertex -9.366177e-001  6.432165e+000  6.432165e+000
      vertex  1.446386e+000  8.000000e+001  6.337031e+000
      vertex -1.446386e+000  8.000000e+001  6.337031e+000
    endloop
  endfacet
  facet normal -3.254701e-001 -1.032523e-003  9.455518e-001
    outer loop
      vertex -9.366177e-001  6.432165e+000  6.432165e+000
      vertex -1.446386e+000  8.000000e+001  6.337031e+000
      vertex -3.224600e+000  5.643754e+000  5.643754e+000
    endloop
  endfacet
  facet normal -7.818304e-001  1.747519e-003  6.234889e-001
    outer loop
      vertex -5.856297e+000  8.000000e+001  2.820244e+000
      vertex -5.443786e+000  3.551788e+000  3.551787e+000
      vertex -4.052684e+000  8.000000e+001  5.081904e+000
    endloop
  endfacet
  facet normal -7.705612e-001  1.264734e-003  6.373647e-001
    outer loop
      vertex -4.052684e+000  8.000000e+001  5.081904e+000
      vertex -5.443786e+000  3.551788e+000  3.551787e+000
      vertex -4.500544e+000  4.689894e+000  4.689889e+000
    endloop
  endfacet
  facet normal -5.984631e-001 -6.112727e-004  8.011501e-001
    outer loop
      vertex -4.052684e+000  8.000000e+001  5.081904e+000
      vertex -4.500544e+000  4.689894e+000  4.689889e+000
      vertex -3.224600e+000  5.643754e+000  5.643754e+000
    endloop
  endfacet
  facet normal -9.749279e-001  0.000000e+000  2.225210e-001
    outer loop
      vertex -6.500000e+000  8.000000e+001  0.000000e+000
      vertex -6.500000e+000 -2.090586e-015  0.000000e+000
      vertex -5.856297e+000  8.000000e+001  2.820244e+000
    endloop
  endfacet
  facet normal -9.973014e-001  5.443572e-003  7.321341e-002
    outer loop
      vertex -5.856297e+000  8.000000e+001  2.820244e+000
      vertex -6.500000e+000 -2.090586e-015  0.000000e+000
      vertex -6.419634e+000  1.018972e+000  1.018972e+000
    endloop
  endfacet
  facet normal -9.326051e-001 -1.578854e-003  3.608948e-001
    outer loop
      vertex -5.856297e+000  8.000000e+001  2.820244e+000
      vertex -6.419634e+000  1.018972e+000  1.018972e+000
      vertex -5.443786e+000  3.551788e+000  3.551787e+000
    endloop
  endfacet
  facet normal -9.749279e-001  0.000000e+000 -2.225210e-001
    outer loop
      vertex -6.500000e+000  8.000000e+001  0.000000e+000
      vertex -5.856297e+000  8.000000e+001 -2.820244e+000
      vertex -6.500000e+000 -2.090586e-015  0.000000e+000
    endloop
  endfacet
  facet normal  9.749278e-001  0.000000e+000 -2.225210e-001
    outer loop
      vertex  6.500000e+000 -1.300000e+001 -2.090586e-015
      vertex  5.856297e+000 -1.300000e+001 -2.820244e+000
      vertex  6.500000e+000  0.000000e+000  0.000000e+000
    endloop
  endfacet
  facet normal -9.749278e-001  -0.000000e+000 -2.225210e-001
    outer loop
      vertex -6.500000e+000 -1.300000e+001  0.000000e+000
      vertex -6.500000e+000 -2.090586e-015  0.000000e+000
      vertex -5.856297e+000 -1.300000e+001 -2.820244e+000
    endloop
  endfacet
  facet normal -9.749279e-001  0.000000e+000 -2.225210e-001
    outer loop
      vertex -5.856297e+000 -1.300000e+001 -2.820244e+000
      vertex -6.500000e+000 -2.090586e-015  0.000000e+000
      vertex -5.856297e+000  8.000000e+001 -2.820244e+000
    endloop
  endfacet
  facet normal -7.818316e-001  -0.000000e+000 -6.234898e-001
    outer loop
      vertex -5.856297e+000 -1.300000e+001 -2.820244e+000
      vertex -5.856297e+000  8.000000e+001 -2.820244e+000
      vertex -4.052684e+000 -1.300000e+001 -5.081904e+000
    endloop
  endfacet
  facet normal -7.818316e-001  0.000000e+000 -6.234898e-001
    outer loop
      vertex -4.052684e+000 -1.300000e+001 -5.081904e+000
      vertex -5.856297e+000  8.000000e+001 -2.820244e+000
      vertex -4.052684e+000  8.000000e+001 -5.081904e+000
    endloop
  endfacet
  facet normal -4.338838e-001  -0.000000e+000 -9.009688e-001
    outer loop
      vertex -4.052684e+000 -1.300000e+001 -5.081904e+000
      vertex -4.052684e+000  8.000000e+001 -5.081904e+000
      vertex -1.446386e+000 -1.300000e+001 -6.337031e+000
    endloop
  endfacet
  facet normal -4.338838e-001  0.000000e+000 -9.009688e-001
    outer loop
      vertex -1.446386e+000 -1.300000e+001 -6.337031e+000
      vertex -4.052684e+000  8.000000e+001 -5.081904e+000
      vertex -1.446386e+000  8.000000e+001 -6.337031e+000
    endloop
  endfacet
  facet normal  0.000000e+000  0.000000e+000 -1.000000e+000
    outer loop
      vertex -1.446386e+000 -1.300000e+001 -6.337031e+000
      vertex -1.446386e+000  8.000000e+001 -6.337031e+000
      vertex  1.446386e+000 -1.300000e+001 -6.337031e+000
    endloop
  endfacet
  facet normal  0.000000e+000  0.000000e+000 -1.000000e+000
    outer loop
      vertex  1.446386e+000 -1.300000e+001 -6.337031e+000
      vertex -1.446386e+000  8.000000e+001 -6.337031e+000
      vertex  1.446386e+000  8.000000e+001 -6.337031e+000
    endloop
  endfacet
  facet normal  4.338838e-001  0.000000e+000 -9.009688e-001
    outer loop
      vertex  1.446386e+000 -1.300000e+001 -6.337031e+000
      vertex  1.446386e+000  8.000000e+001 -6.337031e+000
      vertex  4.052684e+000 -1.300000e+001 -5.081904e+000
    endloop
  endfacet
  facet normal  4.338838e-001  0.000000e+000 -9.009688e-001
    outer loop
      vertex  4.052684e+000 -1.300000e+001 -5.081904e+000
      vertex  1.446386e+000  8.000000e+001 -6.337031e+000
      vertex  4.052684e+000  8.000000e+001 -5.081904e+000
    endloop
  endfacet
  facet normal  7.818316e-001  0.000000e+000 -6.234898e-001
    outer loop
      vertex  4.052684e+000 -1.300000e+001 -5.081904e+000
      vertex  4.052684e+000  8.000000e+001 -5.081904e+000
      vertex  5.856297e+000 -1.300000e+001 -2.820244e+000
    endloop
  endfacet
  facet normal  7.818316e-001  0.000000e+000 -6.234898e-001
    outer loop
      vertex  5.856297e+000 -1.300000e+001 -2.820244e+000
      vertex  4.052684e+000  8.000000e+001 -5.081904e+000
      vertex  5.856297e+000  8.000000e+001 -2.820244e+000
    endloop
  endfacet
  facet normal  9.749279e-001  0.000000e+000 -2.225210e-001
    outer loop
      vertex  5.856297e+000 -1.300000e+001 -2.820244e+000
      vertex  5.856297e+000  8.000000e+001 -2.820244e+000
      vertex  6.500000e+000  0.000000e+000  0.000000e+000
    endloop
  endfacet
  facet normal  9.749279e-001 -5.814990e-018 -2.225210e-001
    outer loop
      vertex  6.500000e+000  0.000000e+000  0.000000e+000
      vertex  5.856297e+000  8.000000e+001 -2.820244e+000
      vertex  6.500000e+000  8.000000e+001 -2.090586e-015
    endloop
  endfacet
  facet normal  0.000000e+000  1.000000e+000  0.000000e+000
    outer loop
      vertex -1.446386e+000  8.000000e+001  6.337031e+000
      vertex  1.446386e+000  8.000000e+001  6.337031e+000
      vertex -4.052684e+000  8.000000e+001  5.081904e+000
    endloop
  endfacet
  facet normal  0.000000e+000  1.000000e+000  0.000000e+000
    outer loop
      vertex -4.052684e+000  8.000000e+001  5.081904e+000
      vertex  1.446386e+000  8.000000e+001  6.337031e+000
      vertex  4.052684e+000  8.000000e+001  5.081904e+000
    endloop
  endfacet
  facet normal  0.000000e+000  1.000000e+000  0.000000e+000
    outer loop
      vertex -4.052684e+000  8.000000e+001  5.081904e+000
      vertex  4.052684e+000  8.000000e+001  5.081904e+000
      vertex -5.856297e+000  8.000000e+001  2.820244e+000
    endloop
  endfacet
  facet normal  0.000000e+000  1.000000e+000  0.000000e+000
    outer loop
      vertex -5.856297e+000  8.000000e+001  2.820244e+000
      vertex  4.052684e+000  8.000000e+001  5.081904e+000
      vertex  5.856297e+000  8.000000e+001  2.820244e+000
    endloop
  endfacet
  facet normal  0.000000e+000  1.000000e+000  0.000000e+000
    outer loop
      vertex -5.856297e+000  8.000000e+001  2.820244e+000
      vertex  5.856297e+000  8.000000e+001  2.820244e+000
      vertex -6.500000e+000  8.000000e+001  0.000000e+000
    endloop
  endfacet
  facet normal  -0.000000e+000  1.000000e+000  0.000000e+000
    outer loop
      vertex -6.500000e+000  8.000000e+001  0.000000e+000
      vertex  5.856297e+000  8.000000e+001  2.820244e+000
      vertex  6.500000e+000  8.000000e+001 -2.090586e-015
    endloop
  endfacet
  facet normal  0.000000e+000  1.000000e+000  0.000000e+000
    outer loop
      vertex -6.500000e+000  8.000000e+001  0.000000e+000
      vertex  6.500000e+000  8.000000e+001 -2.090586e-015
      vertex -5.856297e+000  8.000000e+001 -2.820244e+000
    endloop
  endfacet
  facet normal  0.000000e+000  1.000000e+000  0.000000e+000
    outer loop
      vertex -5.856297e+000  8.000000e+001 -2.820244e+000
      vertex  6.500000e+000  8.000000e+001 -2.090586e-015
      vertex  5.856297e+000  8.000000e+001 -2.820244e+000
    endloop
  endfacet
  facet normal  0.000000e+000  1.000000e+000  0.000000e+000
    outer loop
      vertex -5.856297e+000  8.000000e+001 -2.820244e+000
      vertex  5.856297e+000  8.000000e+001 -2.820244e+000
      vertex -4.052684e+000  8.000000e+001 -5.081904e+000
    endloop
  endfacet
  facet normal  0.000000e+000  1.000000e+000  0.000000e+000
    outer loop
      vertex -4.052684e+000  8.000000e+001 -5.081904e+000
      vertex  5.856297e+000  8.000000e+001 -2.820244e+000
      vertex  4.052684e+000  8.000000e+001 -5.081904e+000
    endloop
  endfacet
  facet normal  0.000000e+000  1.000000e+000  0.000000e+000
    outer loop
      vertex -4.052684e+000  8.000000e+001 -5.081904e+000
      vertex  4.052684e+000  8.000000e+001 -5.081904e+000
      vertex -1.446386e+000  8.000000e+001 -6.337031e+000
    endloop
  endfacet
  facet normal  0.000000e+000  1.000000e+000  0.000000e+000
    outer loop
      vertex -1.446386e+000  8.000000e+001 -6.337031e+000
      vertex  4.052684e+000  8.000000e+001 -5.081904e+000
      vertex  1.446386e+000  8.000000e+001 -6.337031e+000
    endloop
  endfacet
  facet normal  -0.000000e+000 -1.000000e+000  0.000000e+000
    outer loop
      vertex -6.500000e+000 -1.300000e+001  0.000000e+000
      vertex  5.856297e+000 -1.300000e+001  2.820244e+000
      vertex -5.856297e+000 -1.300000e+001  2.820244e+000
    endloop
  endfacet
  facet normal  0.000000e+000 -1.000000e+000  0.000000e+000
    outer loop
      vertex -5.856297e+000 -1.300000e+001  2.820244e+000
      vertex  5.856297e+000 -1.300000e+001  2.820244e+000
      vertex  4.052684e+000 -1.300000e+001  5.081904e+000
    endloop
  endfacet
  facet normal  -0.000000e+000 -1.000000e+000  0.000000e+000
    outer loop
      vertex -5.856297e+000 -1.300000e+001  2.820244e+000
      vertex  4.052684e+000 -1.300000e+001  5.081904e+000
      vertex -4.052684e+000 -1.300000e+001  5.081904e+000
    endloop
  endfacet
  facet normal  0.000000e+000 -1.000000e+000  0.000000e+000
    outer loop
      vertex -4.052684e+000 -1.300000e+001  5.081904e+000
      vertex  4.052684e+000 -1.300000e+001  5.081904e+000
      vertex  1.446386e+000 -1.300000e+001  6.337031e+000
    endloop
  endfacet
  facet normal  -0.000000e+000 -1.000000e+000  0.000000e+000
    outer loop
      vertex -4.052684e+000 -1.300000e+001  5.081904e+000
      vertex  1.446386e+000 -1.300000e+001  6.337031e+000
      vertex -1.446386e+000 -1.300000e+001  6.337031e+000
    endloop
  endfacet
  facet normal  0.000000e+000 -1.000000e+000  0.000000e+000
    outer loop
      vertex  5.856297e+000 -1.300000e+001  2.820244e+000
      vertex -6.500000e+000 -1.300000e+001  0.000000e+000
      vertex  6.500000e+000 -1.300000e+001 -2.090586e-015
    endloop
  endfacet
  facet normal  -0.000000e+000 -1.000000e+000  0.000000e+000
    outer loop
      vertex  6.500000e+000 -1.300000e+001 -2.090586e-015
      vertex -6.500000e+000 -1.300000e+001  0.000000e+000
      vertex -5.856297e+000 -1.300000e+001 -2.820244e+000
    endloop
  endfacet
  facet normal  0.000000e+000 -1.000000e+000  0.000000e+000
    outer loop
      vertex  6.500000e+000 -1.300000e+001 -2.090586e-015
      vertex -5.856297e+000 -1.300000e+001 -2.820244e+000
      vertex  5.856297e+000 -1.300000e+001 -2.820244e+000
    endloop
  endfacet
  facet normal  -0.000000e+000 -1.000000e+000  0.000000e+000
    outer loop
      vertex  5.856297e+000 -1.300000e+001 -2.820244e+000
      vertex -5.856297e+000 -1.300000e+001 -2.820244e+000
      vertex -4.052684e+000 -1.300000e+001 -5.081904e+000
    endloop
  endfacet
  facet normal  0.000000e+000 -1.000000e+000  0.000000e+000
    outer loop
      vertex  5.856297e+000 -1.300000e+001 -2.820244e+000
      vertex -4.052684e+000 -1.300000e+001 -5.081904e+000
      vertex  4.052684e+000 -1.300000e+001 -5.081904e+000
    endloop
  endfacet
  facet normal  -0.000000e+000 -1.000000e+000  0.000000e+000
    outer loop
      vertex  4.052684e+000 -1.300000e+001 -5.081904e+000
      vertex -4.052684e+000 -1.300000e+001 -5.081904e+000
      vertex -1.446386e+000 -1.300000e+001 -6.337031e+000
    endloop
  endfacet
  facet normal  0.000000e+000 -1.000000e+000  0.000000e+000
    outer loop
      vertex  4.052684e+000 -1.300000e+001 -5.081904e+000
      vertex -1.446386e+000 -1.300000e+001 -6.337031e+000
      vertex  1.446386e+000 -1.300000e+001 -6.337031e+000
    endloop
  endfacet
  facet normal  0.000000e+000  -0.000000e+000 -9.999999e-001
    outer loop
      vertex  4.052684e+000 -5.081904e+000  3.000000e+001
      vertex  5.856297e+000 -2.820244e+000  3.000000e+001
      vertex  2.427355e+001 -5.982892e+000  3.000000e+001
    endloop
  endfacet
  facet normal  0.000000e+000  0.000000e+000 -1.000000e+000
    outer loop
      vertex  2.500000e+001  0.000000e+000  3.000000e+001
      vertex  2.427355e+001 -5.982892e+000  3.000000e+001
      vertex  5.856297e+000 -2.820244e+000  3.000000e+001
    endloop
  endfacet
  facet normal  0.000000e+000  0.000000e+000 -1.000000e+000
    outer loop
      vertex  2.500000e+001  0.000000e+000  3.000000e+001
      vertex  5.856297e+000 -2.820244e+000  3.000000e+001
      vertex  6.500000e+000  0.000000e+000  3.000000e+001
    endloop
  endfacet
  facet normal  0.000000e+000  0.000000e+000 -9.999999e-001
    outer loop
      vertex  2.500000e+001  0.000000e+000  3.000000e+001
      vertex  6.500000e+000  0.000000e+000  3.000000e+001
      vertex  5.856297e+000  2.820244e+000  3.000000e+001
    endloop
  endfacet
  facet normal  0.000000e+000  0.000000e+000 -1.000000e+000
    outer loop
      vertex  2.500000e+001  0.000000e+000  3.000000e+001
      vertex  5.856297e+000  2.820244e+000  3.000000e+001
      vertex  4.052684e+000  5.081904e+000  3.000000e+001
    endloop
  endfacet
  facet normal  0.000000e+000  0.000000e+000 -1.000000e+000
    outer loop
      vertex  2.500000e+001  0.000000e+000  3.000000e+001
      vertex  4.052684e+000  5.081904e+000  3.000000e+001
      vertex  1.446386e+000  6.337031e+000  3.000000e+001
    endloop
  endfacet
  facet normal  0.000000e+000  0.000000e+000 -1.000000e+000
    outer loop
      vertex  2.500000e+001  0.000000e+000  3.000000e+001
      vertex  1.446386e+000  6.337031e+000  3.000000e+001
      vertex  2.427355e+001  5.982892e+000  3.000000e+001
    endloop
  endfacet
  facet normal  0.000000e+000  -0.000000e+000 -1.000000e+000
    outer loop
      vertex -2.500000e+001  3.061516e-015  3.000000e+001
      vertex -2.427355e+001  5.982892e+000  3.000000e+001
      vertex -1.446386e+000  6.337031e+000  3.000000e+001
    endloop
  endfacet
  facet normal  0.000000e+000  0.000000e+000 -9.999999e-001
    outer loop
      vertex -2.500000e+001  3.061516e-015  3.000000e+001
      vertex -1.446386e+000  6.337031e+000  3.000000e+001
      vertex -4.052684e+000  5.081904e+000  3.000000e+001
    endloop
  endfacet
  facet normal  0.000000e+000  0.000000e+000 -1.000000e+000
    outer loop
      vertex -2.500000e+001  3.061516e-015  3.000000e+001
      vertex -4.052684e+000  5.081904e+000  3.000000e+001
      vertex -5.856297e+000  2.820244e+000  3.000000e+001
    endloop
  endfacet
  facet normal  0.000000e+000  0.000000e+000 -1.000000e+000
    outer loop
      vertex -2.500000e+001  3.061516e-015  3.000000e+001
      vertex -5.856297e+000  2.820244e+000  3.000000e+001
      vertex -6.500000e+000 -2.090586e-015  3.000000e+001
    endloop
  endfacet
  facet normal  0.000000e+000  0.000000e+000 -1.000000e+000
    outer loop
      vertex -2.213640e+001 -1.161808e+001  3.000000e+001
      vertex -2.427355e+001 -5.982892e+000  3.000000e+001
      vertex -1.446386e+000 -6.337031e+000  3.000000e+001
    endloop
  endfacet
  facet normal  0.000000e+000  0.000000e+000 -9.999999e-001
    outer loop
      vertex -2.213640e+001 -1.161808e+001  3.000000e+001
      vertex -1.446386e+000 -6.337031e+000  3.000000e+001
      vertex -3.013417e+000 -2.481772e+001  3.000000e+001
    endloop
  endfacet
  facet normal  0.000000e+000  0.000000e+000 -9.999999e-001
    outer loop
      vertex -2.213640e+001 -1.161808e+001  3.000000e+001
      vertex -3.013417e+000 -2.481772e+001  3.000000e+001
      vertex -8.865122e+000 -2.337541e+001  3.000000e+001
    endloop
  endfacet
  facet normal  0.000000e+000  0.000000e+000 -1.000000e+000
    outer loop
      vertex -2.213640e+001 -1.161808e+001  3.000000e+001
      vertex -8.865122e+000 -2.337541e+001  3.000000e+001
      vertex -1.420162e+001 -2.057460e+001  3.000000e+001
    endloop
  endfacet
  facet normal  0.000000e+000  0.000000e+000 -1.000000e+000
    outer loop
      vertex -2.213640e+001 -1.161808e+001  3.000000e+001
      vertex -1.420162e+001 -2.057460e+001  3.000000e+001
      vertex -1.871277e+001 -1.657807e+001  3.000000e+001
    endloop
  endfacet
  facet normal  0.000000e+000  -0.000000e+000 -1.000000e+000
    outer loop
      vertex  1.446386e+000 -6.337031e+000  3.000000e+001
      vertex  4.052684e+000 -5.081904e+000  3.000000e+001
      vertex  2.427355e+001 -5.982892e+000  3.000000e+001
    endloop
  endfacet
  facet normal  0.000000e+000  0.000000e+000 -1.000000e+000
    outer loop
      vertex  1.446386e+000 -6.337031e+000  3.000000e+001
      vertex  2.427355e+001 -5.982892e+000  3.000000e+001
      vertex  2.213640e+001 -1.161808e+001  3.000000e+001
    endloop
  endfacet
  facet normal  -0.000000e+000  0.000000e+000 -9.999999e-001
    outer loop
      vertex  1.446386e+000 -6.337031e+000  3.000000e+001
      vertex  2.213640e+001 -1.161808e+001  3.000000e+001
      vertex  1.871277e+001 -1.657807e+001  3.000000e+001
    endloop
  endfacet
  facet normal  -0.000000e+000  0.000000e+000 -1.000000e+000
    outer loop
      vertex  1.446386e+000 -6.337031e+000  3.000000e+001
      vertex  1.871277e+001 -1.657807e+001  3.000000e+001
      vertex  1.420162e+001 -2.057460e+001  3.000000e+001
    endloop
  endfacet
  facet normal  -0.000000e+000  0.000000e+000 -9.999999e-001
    outer loop
      vertex  1.446386e+000 -6.337031e+000  3.000000e+001
      vertex  1.420162e+001 -2.057460e+001  3.000000e+001
      vertex  8.865122e+000 -2.337541e+001  3.000000e+001
    endloop
  endfacet
  facet normal  -0.000000e+000  0.000000e+000 -1.000000e+000
    outer loop
      vertex  1.446386e+000 -6.337031e+000  3.000000e+001
      vertex  8.865122e+000 -2.337541e+001  3.000000e+001
      vertex  3.013417e+000 -2.481772e+001  3.000000e+001
    endloop
  endfacet
  facet normal  0.000000e+000  0.000000e+000 -9.999999e-001
    outer loop
      vertex  1.446386e+000 -6.337031e+000  3.000000e+001
      vertex  3.013417e+000 -2.481772e+001  3.000000e+001
      vertex -3.013417e+000 -2.481772e+001  3.000000e+001
    endloop
  endfacet
  facet normal  0.000000e+000  0.000000e+000 -1.000000e+000
    outer loop
      vertex  1.446386e+000 -6.337031e+000  3.000000e+001
      vertex -3.013417e+000 -2.481772e+001  3.000000e+001
      vertex -1.446386e+000 -6.337031e+000  3.000000e+001
    endloop
  endfacet
  facet normal  0.000000e+000  -0.000000e+000 -1.000000e+000
    outer loop
      vertex -2.213640e+001  1.161808e+001  3.000000e+001
      vertex -1.871277e+001  1.657807e+001  3.000000e+001
      vertex -1.420162e+001  2.057460e+001  3.000000e+001
    endloop
  endfacet
  facet normal  0.000000e+000  -0.000000e+000 -1.000000e+000
    outer loop
      vertex -2.213640e+001  1.161808e+001  3.000000e+001
      vertex -1.420162e+001  2.057460e+001  3.000000e+001
      vertex -8.865122e+000  2.337541e+001  3.000000e+001
    endloop
  endfacet
  facet normal  0.000000e+000  -0.000000e+000 -9.999999e-001
    outer loop
      vertex -2.213640e+001  1.161808e+001  3.000000e+001
      vertex -8.865122e+000  2.337541e+001  3.000000e+001
      vertex -3.013417e+000  2.481772e+001  3.000000e+001
    endloop
  endfacet
  facet normal  0.000000e+000  -0.000000e+000 -9.999999e-001
    outer loop
      vertex -2.213640e+001  1.161808e+001  3.000000e+001
      vertex -3.013417e+000  2.481772e+001  3.000000e+001
      vertex -1.446386e+000  6.337031e+000  3.000000e+001
    endloop
  endfacet
  facet normal  -0.000000e+000  0.000000e+000 -1.000000e+000
    outer loop
      vertex -2.213640e+001  1.161808e+001  3.000000e+001
      vertex -1.446386e+000  6.337031e+000  3.000000e+001
      vertex -2.427355e+001  5.982892e+000  3.000000e+001
    endloop
  endfacet
  facet normal  0.000000e+000  0.000000e+000 -1.000000e+000
    outer loop
      vertex  1.446386e+000  6.337031e+000  3.000000e+001
      vertex -1.446386e+000  6.337031e+000  3.000000e+001
      vertex -3.013417e+000  2.481772e+001  3.000000e+001
    endloop
  endfacet
  facet normal  0.000000e+000  0.000000e+000 -9.999999e-001
    outer loop
      vertex  1.446386e+000  6.337031e+000  3.000000e+001
      vertex -3.013417e+000  2.481772e+001  3.000000e+001
      vertex  3.013417e+000  2.481772e+001  3.000000e+001
    endloop
  endfacet
  facet normal  0.000000e+000  -0.000000e+000 -1.000000e+000
    outer loop
      vertex  1.446386e+000  6.337031e+000  3.000000e+001
      vertex  3.013417e+000  2.481772e+001  3.000000e+001
      vertex  8.865122e+000  2.337541e+001  3.000000e+001
    endloop
  endfacet
  facet normal  0.000000e+000  -0.000000e+000 -1.000000e+000
    outer loop
      vertex  1.446386e+000  6.337031e+000  3.000000e+001
      vertex  8.865122e+000  2.337541e+001  3.000000e+001
      vertex  1.420162e+001  2.057460e+001  3.000000e+001
    endloop
  endfacet
  facet normal  0.000000e+000  -0.000000e+000 -1.000000e+000
    outer loop
      vertex  1.446386e+000  6.337031e+000  3.000000e+001
      vertex  1.420162e+001  2.057460e+001  3.000000e+001
      vertex  1.871277e+001  1.657807e+001  3.000000e+001
    endloop
  endfacet
  facet normal  0.000000e+000  -0.000000e+000 -9.999999e-001
    outer loop
      vertex  1.446386e+000  6.337031e+000  3.000000e+001
      vertex  1.871277e+001  1.657807e+001  3.000000e+001
      vertex  2.213640e+001  1.161808e+001  3.000000e+001
    endloop
  endfacet
  facet normal  0.000000e+000  -0.000000e+000 -1.000000e+000
    outer loop
      vertex  1.446386e+000  6.337031e+000  3.000000e+001
      vertex  2.213640e+001  1.161808e+001  3.000000e+001
      vertex  2.427355e+001  5.982892e+000  3.000000e+001
    endloop
  endfacet
  facet normal  0.000000e+000  0.000000e+000 -1.000000e+000
    outer loop
      vertex -2.427355e+001 -5.982892e+000  3.000000e+001
      vertex -2.500000e+001  3.061516e-015  3.000000e+001
      vertex -6.500000e+000 -2.090586e-015  3.000000e+001
    endloop
  endfacet
  facet normal  0.000000e+000  -0.000000e+000 -1.000000e+000
    outer loop
      vertex -2.427355e+001 -5.982892e+000  3.000000e+001
      vertex -6.500000e+000 -2.090586e-015  3.000000e+001
      vertex -5.856297e+000 -2.820244e+000  3.000000e+001
    endloop
  endfacet
  facet normal  0.000000e+000  -0.000000e+000 -9.999999e-001
    outer loop
      vertex -2.427355e+001 -5.982892e+000  3.000000e+001
      vertex -5.856297e+000 -2.820244e+000  3.000000e+001
      vertex -4.052684e+000 -5.081904e+000  3.000000e+001
    endloop
  endfacet
  facet normal  0.000000e+000  -0.000000e+000 -1.000000e+000
    outer loop
      vertex -2.427355e+001 -5.982892e+000  3.000000e+001
      vertex -4.052684e+000 -5.081904e+000  3.000000e+001
      vertex -1.446386e+000 -6.337031e+000  3.000000e+001
    endloop
  endfacet
  facet normal  -0.000000e+000  0.000000e+000  1.000000e+000
    outer loop
      vertex  3.013417e+000  2.481772e+001  3.500000e+001
      vertex -3.013417e+000  2.481772e+001  3.500000e+001
      vertex  8.865122e+000  2.337541e+001  3.500000e+001
    endloop
  endfacet
  facet normal  0.000000e+000  0.000000e+000  1.000000e+000
    outer loop
      vertex  8.865122e+000  2.337541e+001  3.500000e+001
      vertex -3.013417e+000  2.481772e+001  3.500000e+001
      vertex -8.865122e+000  2.337541e+001  3.500000e+001
    endloop
  endfacet
  facet normal  -0.000000e+000  0.000000e+000  1.000000e+000
    outer loop
      vertex  8.865122e+000  2.337541e+001  3.500000e+001
      vertex -8.865122e+000  2.337541e+001  3.500000e+001
      vertex  1.420162e+001  2.057460e+001  3.500000e+001
    endloop
  endfacet
  facet normal  0.000000e+000  0.000000e+000  1.000000e+000
    outer loop
      vertex  1.420162e+001  2.057460e+001  3.500000e+001
      vertex -8.865122e+000  2.337541e+001  3.500000e+001
      vertex -1.420162e+001  2.057460e+001  3.500000e+001
    endloop
  endfacet
  facet normal  -0.000000e+000  0.000000e+000  1.000000e+000
    outer loop
      vertex  1.420162e+001  2.057460e+001  3.500000e+001
      vertex -1.420162e+001  2.057460e+001  3.500000e+001
      vertex  1.871277e+001  1.657807e+001  3.500000e+001
    endloop
  endfacet
  facet normal  0.000000e+000  0.000000e+000  1.000000e+000
    outer loop
      vertex  1.871277e+001  1.657807e+001  3.500000e+001
      vertex -1.420162e+001  2.057460e+001  3.500000e+001
      vertex -1.871277e+001  1.657807e+001  3.500000e+001
    endloop
  endfacet
  facet normal  -0.000000e+000  0.000000e+000  1.000000e+000
    outer loop
      vertex  1.871277e+001  1.657807e+001  3.500000e+001
      vertex -1.871277e+001  1.657807e+001  3.500000e+001
      vertex  2.213640e+001  1.161808e+001  3.500000e+001
    endloop
  endfacet
  facet normal  0.000000e+000  0.000000e+000  9.999999e-001
    outer loop
      vertex  2.213640e+001  1.161808e+001  3.500000e+001
      vertex -1.871277e+001  1.657807e+001  3.500000e+001
      vertex -2.213640e+001  1.161808e+001  3.500000e+001
    endloop
  endfacet
  facet normal  -0.000000e+000  0.000000e+000  1.000000e+000
    outer loop
      vertex  2.213640e+001  1.161808e+001  3.500000e+001
      vertex -2.213640e+001  1.161808e+001  3.500000e+001
      vertex  2.427355e+001  5.982892e+000  3.500000e+001
    endloop
  endfacet
  facet normal  0.000000e+000  0.000000e+000  1.000000e+000
    outer loop
      vertex  2.427355e+001  5.982892e+000  3.500000e+001
      vertex -2.213640e+001  1.161808e+001  3.500000e+001
      vertex -2.427355e+001  5.982892e+000  3.500000e+001
    endloop
  endfacet
  facet normal  -0.000000e+000  0.000000e+000  1.000000e+000
    outer loop
      vertex  2.427355e+001  5.982892e+000  3.500000e+001
      vertex -2.427355e+001  5.982892e+000  3.500000e+001
      vertex  2.500000e+001  0.000000e+000  3.500000e+001
    endloop
  endfacet
  facet normal  0.000000e+000  0.000000e+000  1.000000e+000
    outer loop
      vertex  2.500000e+001  0.000000e+000  3.500000e+001
      vertex -2.427355e+001  5.982892e+000  3.500000e+001
      vertex -2.500000e+001  3.061516e-015  3.500000e+001
    endloop
  endfacet
  facet normal  0.000000e+000  0.000000e+000  1.000000e+000
    outer loop
      vertex  2.500000e+001  0.000000e+000  3.500000e+001
      vertex -2.500000e+001  3.061516e-015  3.500000e+001
      vertex  2.427355e+001 -5.982892e+000  3.500000e+001
    endloop
  endfacet
  facet normal  0.000000e+000  0.000000e+000  1.000000e+000
    outer loop
      vertex  2.427355e+001 -5.982892e+000  3.500000e+001
      vertex -2.500000e+001  3.061516e-015  3.500000e+001
      vertex -2.427355e+001 -5.982892e+000  3.500000e+001
    endloop
  endfacet
  facet normal  -0.000000e+000  0.000000e+000  1.000000e+000
    outer loop
      vertex  2.427355e+001 -5.982892e+000  3.500000e+001
      vertex -2.427355e+001 -5.982892e+000  3.500000e+001
      vertex  2.213640e+001 -1.161808e+001  3.500000e+001
    endloop
  endfacet
  facet normal  0.000000e+000  0.000000e+000  1.000000e+000
    outer loop
      vertex  2.213640e+001 -1.161808e+001  3.500000e+001
      vertex -2.427355e+001 -5.982892e+000  3.500000e+001
      vertex -2.213640e+001 -1.161808e+001  3.500000e+001
    endloop
  endfacet
  facet normal  -0.000000e+000  0.000000e+000  9.999999e-001
    outer loop
      vertex  2.213640e+001 -1.161808e+001  3.500000e+001
      vertex -2.213640e+001 -1.161808e+001  3.500000e+001
      vertex  1.871277e+001 -1.657807e+001  3.500000e+001
    endloop
  endfacet
  facet normal  0.000000e+000  0.000000e+000  1.000000e+000
    outer loop
      vertex  1.871277e+001 -1.657807e+001  3.500000e+001
      vertex -2.213640e+001 -1.161808e+001  3.500000e+001
      vertex -1.871277e+001 -1.657807e+001  3.500000e+001
    endloop
  endfacet
  facet normal  -0.000000e+000  0.000000e+000  1.000000e+000
    outer loop
      vertex  1.871277e+001 -1.657807e+001  3.500000e+001
      vertex -1.871277e+001 -1.657807e+001  3.500000e+001
      vertex  1.420162e+001 -2.057460e+001  3.500000e+001
    endloop
  endfacet
  facet normal  0.000000e+000  0.000000e+000  1.000000e+000
    outer loop
      vertex  1.420162e+001 -2.057460e+001  3.500000e+001
      vertex -1.871277e+001 -1.657807e+001  3.500000e+001
      vertex -1.420162e+001 -2.057460e+001  3.500000e+001
    endloop
  endfacet
  facet normal  -0.000000e+000  0.000000e+000  1.000000e+000
    outer loop
      vertex  1.420162e+001 -2.057460e+001  3.500000e+001
      vertex -1.420162e+001 -2.057460e+001  3.500000e+001
      vertex  8.865122e+000 -2.337541e+001  3.500000e+001
    endloop
  endfacet
  facet normal  0.000000e+000  0.000000e+000  1.000000e+000
    outer loop
      vertex  8.865122e+000 -2.337541e+001  3.500000e+001
      vertex -1.420162e+001 -2.057460e+001  3.500000e+001
      vertex -8.865122e+000 -2.337541e+001  3.500000e+001
    endloop
  endfacet
  facet normal  -0.000000e+000  0.000000e+000  1.000000e+000
    outer loop
      vertex  8.865122e+000 -2.337541e+001  3.500000e+001
      vertex -8.865122e+000 -2.337541e+001  3.500000e+001
      vertex  3.013417e+000 -2.481772e+001  3.500000e+001
    endloop
  endfacet
  facet normal  0.000000e+000  0.000000e+000  1.000000e+000
    outer loop
      vertex  3.013417e+000 -2.481772e+001  3.500000e+001
      vertex -8.865122e+000 -2.337541e+001  3.500000e+001
      vertex -3.013417e+000 -2.481772e+001  3.500000e+001
    endloop
  endfacet
  facet normal  9.927089e-001 -1.205366e-001  0.000000e+000
    outer loop
      vertex  2.500000e+001  0.000000e+000  3.000000e+001
      vertex  2.500000e+001  0.000000e+000  3.500000e+001
      vertex  2.427355e+001 -5.982892e+000  3.000000e+001
    endloop
  endfacet
  facet normal  9.927089e-001 -1.205366e-001  0.000000e+000
    outer loop
      vertex  2.427355e+001 -5.982892e+000  3.000000e+001
      vertex  2.500000e+001  0.000000e+000  3.500000e+001
      vertex  2.427355e+001 -5.982892e+000  3.500000e+001
    endloop
  endfacet
  facet normal  9.350161e-001 -3.546050e-001  0.000000e+000
    outer loop
      vertex  2.427355e+001 -5.982892e+000  3.000000e+001
      vertex  2.427355e+001 -5.982892e+000  3.500000e+001
      vertex  2.213640e+001 -1.161808e+001  3.000000e+001
    endloop
  endfacet
  facet normal  9.350161e-001 -3.546050e-001  0.000000e+000
    outer loop
      vertex  2.213640e+001 -1.161808e+001  3.000000e+001
      vertex  2.427355e+001 -5.982892e+000  3.500000e+001
      vertex  2.213640e+001 -1.161808e+001  3.500000e+001
    endloop
  endfacet
  facet normal  8.229838e-001 -5.680647e-001  0.000000e+000
    outer loop
      vertex  2.213640e+001 -1.161808e+001  3.000000e+001
      vertex  2.213640e+001 -1.161808e+001  3.500000e+001
      vertex  1.871277e+001 -1.657807e+001  3.000000e+001
    endloop
  endfacet
  facet normal  8.229838e-001 -5.680647e-001  0.000000e+000
    outer loop
      vertex  1.871277e+001 -1.657807e+001  3.000000e+001
      vertex  2.213640e+001 -1.161808e+001  3.500000e+001
      vertex  1.871277e+001 -1.657807e+001  3.500000e+001
    endloop
  endfacet
  facet normal  6.631227e-001 -7.485107e-001  0.000000e+000
    outer loop
      vertex  1.871277e+001 -1.657807e+001  3.000000e+001
      vertex  1.871277e+001 -1.657807e+001  3.500000e+001
      vertex  1.420162e+001 -2.057460e+001  3.000000e+001
    endloop
  endfacet
  facet normal  6.631227e-001 -7.485107e-001  0.000000e+000
    outer loop
      vertex  1.420162e+001 -2.057460e+001  3.000000e+001
      vertex  1.871277e+001 -1.657807e+001  3.500000e+001
      vertex  1.420162e+001 -2.057460e+001  3.500000e+001
    endloop
  endfacet
  facet normal  4.647233e-001 -8.854560e-001  0.000000e+000
    outer loop
      vertex  1.420162e+001 -2.057460e+001  3.000000e+001
      vertex  1.420162e+001 -2.057460e+001  3.500000e+001
      vertex  8.865122e+000 -2.337541e+001  3.000000e+001
    endloop
  endfacet
  facet normal  4.647233e-001 -8.854560e-001  0.000000e+000
    outer loop
      vertex  8.865122e+000 -2.337541e+001  3.000000e+001
      vertex  1.420162e+001 -2.057460e+001  3.500000e+001
      vertex  8.865122e+000 -2.337541e+001  3.500000e+001
    endloop
  endfacet
  facet normal  2.393157e-001 -9.709418e-001  0.000000e+000
    outer loop
      vertex  8.865122e+000 -2.337541e+001  3.000000e+001
      vertex  8.865122e+000 -2.337541e+001  3.500000e+001
      vertex  3.013417e+000 -2.481772e+001  3.000000e+001
    endloop
  endfacet
  facet normal  2.393157e-001 -9.709418e-001  0.000000e+000
    outer loop
      vertex  3.013417e+000 -2.481772e+001  3.000000e+001
      vertex  8.865122e+000 -2.337541e+001  3.500000e+001
      vertex  3.013417e+000 -2.481772e+001  3.500000e+001
    endloop
  endfacet
  facet normal  0.000000e+000 -1.000000e+000  -0.000000e+000
    outer loop
      vertex  3.013417e+000 -2.481772e+001  3.000000e+001
      vertex  3.013417e+000 -2.481772e+001  3.500000e+001
      vertex -3.013417e+000 -2.481772e+001  3.000000e+001
    endloop
  endfacet
  facet normal  0.000000e+000 -1.000000e+000  0.000000e+000
    outer loop
      vertex -3.013417e+000 -2.481772e+001  3.000000e+001
      vertex  3.013417e+000 -2.481772e+001  3.500000e+001
      vertex -3.013417e+000 -2.481772e+001  3.500000e+001
    endloop
  endfacet
  facet normal -2.393157e-001 -9.709418e-001  -0.000000e+000
    outer loop
      vertex -3.013417e+000 -2.481772e+001  3.000000e+001
      vertex -3.013417e+000 -2.481772e+001  3.500000e+001
      vertex -8.865122e+000 -2.337541e+001  3.000000e+001
    endloop
  endfacet
  facet normal -2.393157e-001 -9.709418e-001  0.000000e+000
    outer loop
      vertex -8.865122e+000 -2.337541e+001  3.000000e+001
      vertex -3.013417e+000 -2.481772e+001  3.500000e+001
      vertex -8.865122e+000 -2.337541e+001  3.500000e+001
    endloop
  endfacet
  facet normal -4.647233e-001 -8.854560e-001  -0.000000e+000
    outer loop
      vertex -8.865122e+000 -2.337541e+001  3.000000e+001
      vertex -8.865122e+000 -2.337541e+001  3.500000e+001
      vertex -1.420162e+001 -2.057460e+001  3.000000e+001
    endloop
  endfacet
  facet normal -4.647233e-001 -8.854560e-001  0.000000e+000
    outer loop
      vertex -1.420162e+001 -2.057460e+001  3.000000e+001
      vertex -8.865122e+000 -2.337541e+001  3.500000e+001
      vertex -1.420162e+001 -2.057460e+001  3.500000e+001
    endloop
  endfacet
  facet normal -6.631227e-001 -7.485107e-001  -0.000000e+000
    outer loop
      vertex -1.420162e+001 -2.057460e+001  3.000000e+001
      vertex -1.420162e+001 -2.057460e+001  3.500000e+001
      vertex -1.871277e+001 -1.657807e+001  3.000000e+001
    endloop
  endfacet
  facet normal -6.631227e-001 -7.485107e-001  0.000000e+000
    outer loop
      vertex -1.871277e+001 -1.657807e+001  3.000000e+001
      vertex -1.420162e+001 -2.057460e+001  3.500000e+001
      vertex -1.871277e+001 -1.657807e+001  3.500000e+001
    endloop
  endfacet
  facet normal -8.229838e-001 -5.680647e-001  -0.000000e+000
    outer loop
      vertex -1.871277e+001 -1.657807e+001  3.000000e+001
      vertex -1.871277e+001 -1.657807e+001  3.500000e+001
      vertex -2.213640e+001 -1.161808e+001  3.000000e+001
    endloop
  endfacet
  facet normal -8.229838e-001 -5.680647e-001  0.000000e+000
    outer loop
      vertex -2.213640e+001 -1.161808e+001  3.000000e+001
      vertex -1.871277e+001 -1.657807e+001  3.500000e+001
      vertex -2.213640e+001 -1.161808e+001  3.500000e+001
    endloop
  endfacet
  facet normal -9.350161e-001 -3.546050e-001  -0.000000e+000
    outer loop
      vertex -2.213640e+001 -1.161808e+001  3.000000e+001
      vertex -2.213640e+001 -1.161808e+001  3.500000e+001
      vertex -2.427355e+001 -5.982892e+000  3.000000e+001
    endloop
  endfacet
  facet normal -9.350161e-001 -3.546050e-001  0.000000e+000
    outer loop
      vertex -2.427355e+001 -5.982892e+000  3.000000e+001
      vertex -2.213640e+001 -1.161808e+001  3.500000e+001
      vertex -2.427355e+001 -5.982892e+000  3.500000e+001
    endloop
  endfacet
  facet normal -9.927089e-001 -1.205366e-001  -0.000000e+000
    outer loop
      vertex -2.427355e+001 -5.982892e+000  3.000000e+001
      vertex -2.427355e+001 -5.982892e+000  3.500000e+001
      vertex -2.500000e+001  3.061516e-015  3.000000e+001
    endloop
  endfacet
  facet normal -9.927089e-001 -1.205366e-001  0.000000e+000
    outer loop
      vertex -2.500000e+001  3.061516e-015  3.000000e+001
      vertex -2.427355e+001 -5.982892e+000  3.500000e+001
      vertex -2.500000e+001  3.061516e-015  3.500000e+001
    endloop
  endfacet
  facet normal -9.927089e-001  1.205366e-001  0.000000e+000
    outer loop
      vertex -2.500000e+001  3.061516e-015  3.000000e+001
      vertex -2.500000e+001  3.061516e-015  3.500000e+001
      vertex -2.427355e+001  5.982892e+000  3.000000e+001
    endloop
  endfacet
  facet normal -9.927089e-001  1.205366e-001  0.000000e+000
    outer loop
      vertex -2.427355e+001  5.982892e+000  3.000000e+001
      vertex -2.500000e+001  3.061516e-015  3.500000e+001
      vertex -2.427355e+001  5.982892e+000  3.500000e+001
    endloop
  endfacet
  facet normal -9.350161e-001  3.546050e-001  0.000000e+000
    outer loop
      vertex -2.427355e+001  5.982892e+000  3.000000e+001
      vertex -2.427355e+001  5.982892e+000  3.500000e+001
      vertex -2.213640e+001  1.161808e+001  3.000000e+001
    endloop
  endfacet
  facet normal -9.350161e-001  3.546050e-001  0.000000e+000
    outer loop
      vertex -2.213640e+001  1.161808e+001  3.000000e+001
      vertex -2.427355e+001  5.982892e+000  3.500000e+001
      vertex -2.213640e+001  1.161808e+001  3.500000e+001
    endloop
  endfacet
  facet normal -8.229838e-001  5.680647e-001  0.000000e+000
    outer loop
      vertex -2.213640e+001  1.161808e+001  3.000000e+001
      vertex -2.213640e+001  1.161808e+001  3.500000e+001
      vertex -1.871277e+001  1.657807e+001  3.000000e+001
    endloop
  endfacet
  facet normal -8.229838e-001  5.680647e-001  0.000000e+000
    outer loop
      vertex -1.871277e+001  1.657807e+001  3.000000e+001
      vertex -2.213640e+001  1.161808e+001  3.500000e+001
      vertex -1.871277e+001  1.657807e+001  3.500000e+001
    endloop
  endfacet
  facet normal -6.631227e-001  7.485107e-001  0.000000e+000
    outer loop
      vertex -1.871277e+001  1.657807e+001  3.000000e+001
      vertex -1.871277e+001  1.657807e+001  3.500000e+001
      vertex -1.420162e+001  2.057460e+001  3.000000e+001
    endloop
  endfacet
  facet normal -6.631227e-001  7.485107e-001  0.000000e+000
    outer loop
      vertex -1.420162e+001  2.057460e+001  3.000000e+001
      vertex -1.871277e+001  1.657807e+001  3.500000e+001
      vertex -1.420162e+001  2.057460e+001  3.500000e+001
    endloop
  endfacet
  facet normal -4.647233e-001  8.854560e-001  0.000000e+000
    outer loop
      vertex -1.420162e+001  2.057460e+001  3.000000e+001
      vertex -1.420162e+001  2.057460e+001  3.500000e+001
      vertex -8.865122e+000  2.337541e+001  3.000000e+001
    endloop
  endfacet
  facet normal -4.647233e-001  8.854560e-001  0.000000e+000
    outer loop
      vertex -8.865122e+000  2.337541e+001  3.000000e+001
      vertex -1.420162e+001  2.057460e+001  3.500000e+001
      vertex -8.865122e+000  2.337541e+001  3.500000e+001
    endloop
  endfacet
  facet normal -2.393157e-001  9.709418e-001  0.000000e+000
    outer loop
      vertex -8.865122e+000  2.337541e+001  3.000000e+001
      vertex -8.865122e+000  2.337541e+001  3.500000e+001
      vertex -3.013417e+000  2.481772e+001  3.000000e+001
    endloop
  endfacet
  facet normal -2.393157e-001  9.709418e-001  0.000000e+000
    outer loop
      vertex -3.013417e+000  2.481772e+001  3.000000e+001
      vertex -8.865122e+000  2.337541e+001  3.500000e+001
      vertex -3.013417e+000  2.481772e+001  3.500000e+001
    endloop
  endfacet
  facet normal  0.000000e+000  1.000000e+000  0.000000e+000
    outer loop
      vertex -3.013417e+000  2.481772e+001  3.000000e+001
      vertex -3.013417e+000  2.481772e+001  3.500000e+001
      vertex  3.013417e+000  2.481772e+001  3.000000e+001
    endloop
  endfacet
  facet normal  0.000000e+000  1.000000e+000  -0.000000e+000
    outer loop
      vertex  3.013417e+000  2.481772e+001  3.000000e+001
      vertex -3.013417e+000  2.481772e+001  3.500000e+001
      vertex  3.013417e+000  2.481772e+001  3.500000e+001
    endloop
  endfacet
  facet normal  2.393157e-001  9.709418e-001  0.000000e+000
    outer loop
      vertex  3.013417e+000  2.481772e+001  3.000000e+001
      vertex  3.013417e+000  2.481772e+001  3.500000e+001
      vertex  8.865122e+000  2.337541e+001  3.000000e+001
    endloop
  endfacet
  facet normal  2.393157e-001  9.709418e-001  -0.000000e+000
    outer loop
      vertex  8.865122e+000  2.337541e+001  3.000000e+001
      vertex  3.013417e+000  2.481772e+001  3.500000e+001
      vertex  8.865122e+000  2.337541e+001  3.500000e+001
    endloop
  endfacet
  facet normal  4.647233e-001  8.854560e-001  0.000000e+000
    outer loop
      vertex  8.865122e+000  2.337541e+001  3.000000e+001
      vertex  8.865122e+000  2.337541e+001  3.500000e+001
      vertex  1.420162e+001  2.057460e+001  3.000000e+001
    endloop
  endfacet
  facet normal  4.647233e-001  8.854560e-001  -0.000000e+000
    outer loop
      vertex  1.420162e+001  2.057460e+001  3.000000e+001
      vertex  8.865122e+000  2.337541e+001  3.500000e+001
      vertex  1.420162e+001  2.057460e+001  3.500000e+001
    endloop
  endfacet
  facet normal  6.631227e-001  7.485107e-001  0.000000e+000
    outer loop
      vertex  1.420162e+001  2.057460e+001  3.000000e+001
      vertex  1.420162e+001  2.057460e+001  3.500000e+001
      vertex  1.871277e+001  1.657807e+001  3.000000e+001
    endloop
  endfacet
  facet normal  6.631227e-001  7.485107e-001  -0.000000e+000
    outer loop
      vertex  1.871277e+001  1.657807e+001  3.000000e+001
      vertex  1.420162e+001  2.057460e+001  3.500000e+001
      vertex  1.871277e+001  1.657807e+001  3.500000e+001
    endloop
  endfacet
  facet normal  8.229838e-001  5.680647e-001  0.000000e+000
    outer loop
      vertex  1.871277e+001  1.657807e+001  3.000000e+001
      vertex  1.871277e+001  1.657807e+001  3.500000e+001
      vertex  2.213640e+001  1.161808e+001  3.000000e+001
    endloop
  endfacet
  facet normal  8.229838e-001  5.680647e-001  -0.000000e+000
    outer loop
      vertex  2.213640e+001  1.161808e+001  3.000000e+001
      vertex  1.871277e+001  1.657807e+001  3.500000e+001
      vertex  2.213640e+001  1.161808e+001  3.500000e+001
    endloop
  endfacet
  facet normal  9.350161e-001  3.546050e-001  0.000000e+000
    outer loop
      vertex  2.213640e+001  1.161808e+001  3.000000e+001
      vertex  2.213640e+001  1.161808e+001  3.500000e+001
      vertex  2.427355e+001  5.982892e+000  3.000000e+001
    endloop
  endfacet
  facet normal  9.350161e-001  3.546050e-001  -0.000000e+000
    outer loop
      vertex  2.427355e+001  5.982892e+000  3.000000e+001
      vertex  2.213640e+001  1.161808e+001  3.500000e+001
      vertex  2.427355e+001  5.982892e+000  3.500000e+001
    endloop
  endfacet
  facet normal  9.927089e-001  1.205366e-001  0.000000e+000
    outer loop
      vertex  2.427355e+001  5.982892e+000  3.000000e+001
      vertex  2.427355e+001  5.982892e+000  3.500000e+001
      vertex  2.500000e+001  0.000000e+000  3.000000e+001
    endloop
  endfacet
  facet normal  9.927089e-001  1.205366e-001  -0.000000e+000
    outer loop
      vertex  2.500000e+001  0.000000e+000  3.000000e+001
      vertex  2.427355e+001  5.982892e+000  3.500000e+001
      vertex  2.500000e+001  0.000000e+000  3.500000e+001
    endloop
  endfacet
endsolid CATIA STL
